<svg width="48" height="48" viewBox="0 0 48 48" fill="none" xmlns="http://www.w3.org/2000/svg">
<path d="M8.00012 22.5938C7.22347 22.5938 6.59387 23.2233 6.59387 24C6.59387 24.7767 7.22347 25.4062 8.00012 25.4062V22.5938ZM40.0001 25.4062C40.7768 25.4062 41.4064 24.7767 41.4064 24C41.4064 23.2233 40.7768 22.5938 40.0001 22.5938V25.4062ZM8.00012 10.5938C7.22347 10.5938 6.59387 11.2233 6.59387 12C6.59387 12.7767 7.22347 13.4062 8.00012 13.4062V10.5938ZM40.0001 13.4062C40.7768 13.4062 41.4064 12.7767 41.4064 12C41.4064 11.2233 40.7768 10.5938 40.0001 10.5938V13.4062ZM8.00012 34.5938C7.22347 34.5938 6.59387 35.2233 6.59387 36C6.59387 36.7767 7.22347 37.4062 8.00012 37.4062V34.5938ZM40.0001 37.4062C40.7768 37.4062 41.4064 36.7767 41.4064 36C41.4064 35.2233 40.7768 34.5938 40.0001 34.5938V37.4062ZM8.00012 25.4062H40.0001V22.5938H8.00012V25.4062ZM8.00012 13.4062H40.0001V10.5938H8.00012V13.4062ZM8.00012 37.4062H40.0001V34.5938H8.00012V37.4062Z" fill="#666666"/>
</svg>
